<?xml version="1.0" encoding="UTF-8"?>
<svg width="18px" height="18px" viewBox="0 0 18 18" version="1.1" xmlns="http://www.w3.org/2000/svg" xmlns:xlink="http://www.w3.org/1999/xlink">
    <!-- Generator: Sketch 54.1 (76490) - https://sketchapp.com -->
    <title>arrowDownButton</title>
    <desc>Created with Sketch.</desc>
    <defs>
        <path d="M13,17.5857864 L18.363961,12.2218254 C18.7544853,11.8313011 19.3876503,11.8313011 19.7781746,12.2218254 C20.1686989,12.6123497 20.1686989,13.2455147 19.7781746,13.636039 L12.7071068,20.7071068 C12.5261424,20.8880712 12.2761424,21 12,21 C11.7238576,21 11.4738576,20.8880712 11.2928932,20.7071068 L4.22182541,13.636039 C3.83130112,13.2455147 3.83130112,12.6123497 4.22182541,12.2218254 C4.6123497,11.8313011 5.24551468,11.8313011 5.63603897,12.2218254 L11,17.5857864 L11,4 C11,3.44771525 11.4477153,3 12,3 C12.5522847,3 13,3.44771525 13,4 L13,17.5857864 Z" id="path-1"></path>
    </defs>
    <g id="Page-1" stroke="none" stroke-width="1" fill="none" fill-rule="evenodd">
        <g id="CalculationPage" transform="translate(-177.000000, -230.000000)">
            <g id="arrow-down" transform="translate(174.000000, 227.000000)">
                <mask id="mask-2" fill="white">
                    <use xlink:href="#path-1"></use>
                </mask>
                <g id="Path"></g>
                <g id="color/white" mask="url(#mask-2)" fill="#FFFFFF" fill-rule="evenodd">
                    <rect id="Change-Fill-Color" x="0" y="0" width="24" height="24"></rect>
                </g>
            </g>
        </g>
    </g>
</svg>