<?xml version="1.0" encoding="UTF-8"?>
<svg width="28px" height="28px" viewBox="0 0 28 28" version="1.1" xmlns="http://www.w3.org/2000/svg" xmlns:xlink="http://www.w3.org/1999/xlink">
    <!-- Generator: Sketch 54.1 (76490) - https://sketchapp.com -->
    <title>HomeButton</title>
    <desc>Created with Sketch.</desc>
    <g id="Page-1" stroke="none" stroke-width="1" fill="none" fill-rule="evenodd">
        <g id="Homepage" transform="translate(-29.000000, -626.000000)" fill="#8E8E93">
            <g id="Navbar" transform="translate(0.000000, 621.000000)">
                <g id="Outlined/UI/home" transform="translate(28.000000, 4.000000)">
                    <path d="M16.9875,2.69999996 C15.8733623,1.64284797 14.1266377,1.64284797 13.0125,2.69999996 L1.20937496,14.49375 L2.54062496,15.825 L4.68749997,13.678125 L4.68749997,25.3125 C4.68749997,26.8658009 5.94669911,28.125 7.49999998,28.125 L22.5,28.125 C24.0533009,28.125 25.3125,26.8658009 25.3125,25.3125 L25.3125,13.678125 L27.459375,15.825 L28.790625,14.49375 L16.9875,2.69999996 Z M13.125,26.25 L13.125,19.6875 L16.875,19.6875 L16.875,26.25 L13.125,26.25 Z M23.4375,25.3125 C23.4375,25.830267 23.017767,26.25 22.5,26.25 L18.75,26.25 L18.75,17.8125 L11.25,17.8125 L11.25,26.25 L7.49999998,26.25 C6.98223302,26.25 6.56249997,25.830267 6.56249997,25.3125 L6.56249997,11.803125 L14.334375,4.02187497 C14.5104062,3.84439435 14.7500273,3.74456404 15,3.74456404 C15.2499727,3.74456404 15.4895938,3.84439435 15.665625,4.02187497 L23.4375,11.803125 L23.4375,25.3125 Z" id="Style"></path>
                </g>
            </g>
        </g>
    </g>
</svg>