<?xml version="1.0" encoding="UTF-8"?>
<svg width="28px" height="28px" viewBox="0 0 28 28" version="1.1" xmlns="http://www.w3.org/2000/svg" xmlns:xlink="http://www.w3.org/1999/xlink">
    <!-- Generator: Sketch 54.1 (76490) - https://sketchapp.com -->
    <title>HomeButtonClicked</title>
    <desc>Created with Sketch.</desc>
    <g id="Page-1" stroke="none" stroke-width="1" fill="none" fill-rule="evenodd" fill-opacity="0.5" opacity="0.5">
        <g id="AddPage" transform="translate(-29.000000, -625.000000)" fill="#8E8E93" fill-rule="nonzero">
            <g id="Navbar" transform="translate(0.000000, 621.000000)">
                <g id="Outlined/UI/home" transform="translate(28.000000, 2.000000)">
                    <path d="M16.9875,2.78999996 C15.8733623,1.69760957 14.1266377,1.69760957 13.0125,2.78999996 L1.20937496,14.976875 L2.54062496,16.3525 L4.68749997,14.1340625 L4.68749997,26.15625 C4.68749997,27.7613276 5.94669911,29.0625 7.49999998,29.0625 L22.5,29.0625 C24.0533009,29.0625 25.3125,27.7613276 25.3125,26.15625 L25.3125,14.1340625 L27.459375,16.3525 L28.790625,14.976875 L16.9875,2.78999996 Z M13.125,27.125 L13.125,20.34375 L16.875,20.34375 L16.875,27.125 L13.125,27.125 Z M23.4375,26.15625 C23.4375,26.6912759 23.017767,27.125 22.5,27.125 L18.75,27.125 L18.75,18.40625 L11.25,18.40625 L11.25,27.125 L7.49999998,27.125 C6.98223302,27.125 6.56249997,26.6912759 6.56249997,26.15625 L6.56249997,12.1965625 L14.334375,4.15593746 C14.5104062,3.97254083 14.7500273,3.86938284 15,3.86938284 C15.2499727,3.86938284 15.4895938,3.97254083 15.665625,4.15593746 L23.4375,12.1965625 L23.4375,26.15625 Z" id="Style"></path>
                </g>
            </g>
        </g>
    </g>
</svg>