<?xml version="1.0" encoding="UTF-8"?>
<svg width="29px" height="29px" viewBox="0 0 29 29" version="1.1" xmlns="http://www.w3.org/2000/svg" xmlns:xlink="http://www.w3.org/1999/xlink">
    <!-- Generator: Sketch 54.1 (76490) - https://sketchapp.com -->
    <title>InfoButton</title>
    <desc>Created with Sketch.</desc>
    <g id="Page-1" stroke="none" stroke-width="1" fill="none" fill-rule="evenodd">
        <g id="CalculationPage" transform="translate(-174.000000, -628.000000)" fill="#8E8E93">
            <g id="Outlined/UI/info" transform="translate(172.000000, 626.000000)">
                <path d="M16.5,2.06249995 C20.3290631,2.06249995 24.0012977,3.58358934 26.7088542,6.29114581 C29.4164107,8.99870229 30.9375,12.6709369 30.9375,16.5 C30.9375,24.4736111 24.4736111,30.9375 16.5,30.9375 C8.5263889,30.9375 2.06249995,24.4736111 2.06249995,16.5 C2.06249995,8.5263889 8.5263889,2.06249995 16.5,2.06249995 Z M16.5,28.875 C19.7820541,28.875 22.9296838,27.5712091 25.2504464,25.2504464 C27.5712091,22.9296838 28.875,19.7820541 28.875,16.5 C28.875,9.6654762 23.3345238,4.12499996 16.5,4.12499996 C9.6654762,4.12499996 4.12499996,9.6654762 4.12499996,16.5 C4.12499996,23.3345238 9.6654762,28.875 16.5,28.875 Z M13.40625,16.5 L13.40625,14.4375 L17.53125,14.4375 L17.53125,24.75 L15.46875,24.75 L15.46875,16.5 L13.40625,16.5 Z M16.5,12.375 C15.3609127,12.375 14.4375,11.4515873 14.4375,10.3125 C14.4375,9.17341268 15.3609127,8.24999997 16.5,8.24999997 C17.6390873,8.24999997 18.5625,9.17341268 18.5625,10.3125 C18.5625,11.4515873 17.6390873,12.375 16.5,12.375 Z" id="Style"></path>
            </g>
        </g>
    </g>
</svg>